<svg xmlns="http://www.w3.org/2000/svg" xmlns:xlink="http://www.w3.org/1999/xlink" viewBox="213 19 357.5 356.149"><defs><style>.a{fill:#29b75d;}.b,.c{fill:#fff;}.c{opacity:0.67;}.d{font-size:58px;font-family:CooperBlackStd, Cooper Std;letter-spacing:0.2em;}.e,.g,.h,.j,.k{fill:none;}.e,.g,.h{stroke:#000;}.e{stroke-width:3px;}.f{font-size:14px;font-family:SegoeUI-Bold, Segoe UI;font-weight:700;letter-spacing:0.1em;}.g{font-size:13px;font-family:BradleyHandITC, Bradley Hand ITC;}.h{stroke-width:5px;}.i{stroke:none;}.k{clip-path:url(#l);}.l{filter:url(#i);}.m{filter:url(#g);}.n{filter:url(#e);}.o{filter:url(#c);}.p{filter:url(#a);}</style><filter id="a" x="213" y="19" width="357.5" height="356.149" filterUnits="userSpaceOnUse"><feOffset dy="10" input="SourceAlpha"/><feGaussianBlur stdDeviation="15" result="b"/><feFlood flood-opacity="0.322"/><feComposite operator="in" in2="b"/><feComposite in="SourceGraphic"/></filter><filter id="c" x="242.499" y="39.365" width="301.413" height="296.065" filterUnits="userSpaceOnUse"><feOffset input="SourceAlpha"/><feGaussianBlur stdDeviation="15" result="d"/><feFlood flood-opacity="0.322"/><feComposite operator="in" in2="d"/><feComposite in="SourceGraphic"/></filter><filter id="e" x="275.868" y="72.734" width="235.209" height="231.262" filterUnits="userSpaceOnUse"><feOffset input="SourceAlpha"/><feGaussianBlur stdDeviation="15" result="f"/><feFlood flood-opacity="0.322"/><feComposite operator="in" in2="f"/><feComposite in="SourceGraphic"/></filter><filter id="g" x="269.445" y="127.431" width="249" height="89" filterUnits="userSpaceOnUse"><feOffset dy="3" input="SourceAlpha"/><feGaussianBlur stdDeviation="5" result="h"/><feFlood flood-color="#aeaeae" flood-opacity="0.769"/><feComposite operator="in" in2="h"/><feComposite in="SourceGraphic"/></filter><filter id="i" x="304.723" y="210.656" width="180.302" height="69.398" filterUnits="userSpaceOnUse"><feOffset dy="3" input="SourceAlpha"/><feGaussianBlur stdDeviation="5" result="j"/><feFlood flood-opacity="0.722"/><feComposite operator="in" in2="j"/><feComposite in="SourceGraphic"/></filter><clipPath id="l"><use xlink:href="#k"/></clipPath></defs><g transform="translate(7 -4)"><g class="p" transform="matrix(1, 0, 0, 1, -7, 4)"><ellipse class="a" cx="133.75" cy="133.075" rx="133.75" ry="133.075" transform="translate(258 54)"/></g><g class="o" transform="matrix(1, 0, 0, 1, -7, 4)"><ellipse class="b" cx="105.706" cy="103.033" rx="105.706" ry="103.033" transform="translate(287.5 84.36)"/></g><g class="n" transform="matrix(1, 0, 0, 1, -7, 4)"><ellipse class="c" cx="72.605" cy="70.631" rx="72.605" ry="70.631" transform="translate(320.87 117.73)"/></g><g transform="translate(277.445 103.285)"><g transform="translate(0 41.146)"><g class="m" transform="matrix(1, 0, 0, 1, -284.45, -140.43)"><text class="d" transform="translate(284.45 181.43)"><tspan x="0" y="0">FOOD</tspan></text></g><g transform="translate(35.277 82.225)"><g class="l" transform="matrix(1, 0, 0, 1, -319.72, -222.66)"><g class="e" transform="translate(319.72 222.66)"><rect class="i" width="150.302" height="39.398" rx="19.699"/><rect class="j" x="1.5" y="1.5" width="147.302" height="36.398" rx="18.199"/></g></g><text class="f" transform="translate(72.632 24.475)"><tspan x="-19.484" y="0">HERE</tspan></text></g></g><text class="g" transform="translate(99.77 11)"><tspan x="-45.843" y="0">See all your food</tspan></text><g class="h" transform="translate(60.74 102.905)"><rect id="k" class="i" width="99.27" height="3.135" rx="1.567"/><path class="k" d="M0,0.6348416805267334h99.26956939697266M96.76956939697266,0v3.1348416805267334M99.26956939697266,2.5h-99.26956939697266M2.5,3.1348416805267334v-3.1348416805267334"/></g></g></g></svg>